<svg width="14" height="17" viewBox="0 0 14 17" fill="none" xmlns="http://www.w3.org/2000/svg">
<path d="M7.33209 3.26859C7.2806 3.26915 7.22949 3.25956 7.1817 3.24037C7.13391 3.22118 7.09037 3.19276 7.05357 3.15674C7.01676 3.12072 6.98741 3.0778 6.96719 3.03043C6.94698 2.98307 6.93629 2.93218 6.93573 2.88069C6.93573 1.37979 8.17871 0.164281 9.70919 0.164281C9.76072 0.163583 9.81188 0.173079 9.85974 0.192221C9.90759 0.211364 9.95118 0.239776 9.98802 0.275824C10.0249 0.311873 10.0542 0.354847 10.0744 0.402275C10.0945 0.449704 10.1051 0.500651 10.1055 0.552188C10.1055 2.05308 8.86362 3.26859 7.33209 3.26859ZM13.1189 11.44C13.2722 11.552 13.3219 11.7571 13.2352 11.9241C11.84 14.6574 10.727 16.0188 9.71024 16.0188C9.23673 16.0188 8.77167 15.8687 8.31823 15.577C7.99278 15.368 7.61591 15.2531 7.22925 15.2449C6.84259 15.2367 6.46118 15.3355 6.12716 15.5305C5.57754 15.8528 5.05435 16.0188 4.55758 16.0188C3.06199 16.0188 0.593994 11.5087 0.593994 9.03435C0.593994 6.39193 2.00926 4.37735 4.16122 4.37735C5.17379 4.37735 6.04789 4.52321 6.78247 4.82022C7.09322 4.94494 7.44519 4.93649 7.74853 4.7938C8.34466 4.51264 9.13103 4.37735 10.1055 4.37735C11.2967 4.37735 12.3357 4.95868 13.1982 6.08435C13.2294 6.12495 13.2521 6.17139 13.2651 6.22093C13.278 6.27047 13.2808 6.3221 13.2734 6.37276C13.266 6.42342 13.2486 6.47208 13.222 6.51586C13.1955 6.55964 13.1604 6.59765 13.1189 6.62764C12.156 7.3358 11.692 8.12959 11.692 9.03435C11.692 9.93806 12.156 10.7329 13.1189 11.44Z" fill="black"/>
</svg>
