<svg width="17" height="14" viewBox="0 0 17 14" fill="none" xmlns="http://www.w3.org/2000/svg">
<path d="M6.25 1.34503C6.97765 1.11436 7.73668 0.997973 8.50001 1.00003C11.6365 1.00003 13.771 2.87503 15.0438 4.52803C15.6813 5.35753 16 5.77078 16 7.00003C16 8.23003 15.6813 8.64328 15.0438 9.47203C13.771 11.125 11.6365 13 8.50001 13C5.3635 13 3.229 11.125 1.95625 9.47203C1.31875 8.64403 1 8.22928 1 7.00003C1 5.77003 1.31875 5.35678 1.95625 4.52803C2.34502 4.02006 2.77796 3.54747 3.25 3.11578" stroke="#9B9797" stroke-width="1.5" stroke-linecap="round"/>
<path d="M10.75 7.00006C10.75 7.59679 10.513 8.16909 10.091 8.59105C9.66904 9.013 9.09674 9.25006 8.5 9.25006C7.90326 9.25006 7.33097 9.013 6.90901 8.59105C6.48705 8.16909 6.25 7.59679 6.25 7.00006C6.25 6.40332 6.48705 5.83102 6.90901 5.40906C7.33097 4.98711 7.90326 4.75005 8.5 4.75005C9.09674 4.75005 9.66904 4.98711 10.091 5.40906C10.513 5.83102 10.75 6.40332 10.75 7.00006Z" stroke="#9B9797" stroke-width="1.5"/>
</svg>
