<svg width="17" height="17" viewBox="0 0 17 17" fill="none" xmlns="http://www.w3.org/2000/svg">
<path d="M16.7264 8.10896C16.7379 9.50073 16.3757 10.8701 15.6777 12.0742C14.9801 13.2772 13.972 14.2705 12.7588 14.9502C11.5662 15.6427 10.2131 16.0111 8.83404 16.0188C7.44861 16.0099 6.08968 15.6382 4.8926 14.9407C3.69455 14.2427 2.69982 13.2436 2.00707 12.0425C1.29089 10.8533 0.899706 9.49686 0.872681 8.10896C0.872681 6.71534 1.2413 5.3463 1.9389 4.14057C2.63164 2.93947 3.62638 1.94036 4.82443 1.24235C6.02128 0.545 7.37991 0.173296 8.76507 0.164246C10.6732 0.172173 12.5147 0.866602 13.9535 2.12228C14.0056 2.17101 14.0472 2.22992 14.0756 2.29538C14.104 2.36084 14.1187 2.43143 14.1187 2.50279C14.1187 2.57415 14.104 2.64475 14.0756 2.7102C14.0472 2.77566 14.0056 2.83458 13.9535 2.8833L12.4853 4.3546C12.3901 4.43929 12.2671 4.48608 12.1397 4.48608C12.0123 4.48608 11.8893 4.43929 11.7941 4.3546C10.9629 3.65655 9.91915 3.2616 8.83404 3.23448C7.98651 3.23239 7.15361 3.45535 6.42046 3.88056C5.68731 4.30577 5.08019 4.91799 4.66112 5.65467C4.2166 6.39676 3.97799 7.24396 3.96987 8.10896C3.974 8.95646 4.20061 9.78802 4.62704 10.5204C5.05317 11.2558 5.66741 11.8644 6.40665 12.2837C7.14588 12.7031 7.98343 12.9181 8.83325 12.9065C9.67871 12.9054 10.5089 12.6812 11.24 12.2565C12.1785 11.6942 12.9046 10.8371 13.305 9.81887H9.68702C9.61893 9.81899 9.5515 9.80551 9.48869 9.77922C9.42588 9.75293 9.36896 9.71436 9.32126 9.66577C9.27355 9.61718 9.23604 9.55956 9.21091 9.49628C9.18578 9.43299 9.17354 9.36533 9.17491 9.29726V7.25361C9.17373 7.18599 9.18617 7.11884 9.21148 7.05613C9.23679 6.99342 9.27445 6.93645 9.32223 6.88859C9.37001 6.84074 9.42693 6.80299 9.48959 6.77758C9.55226 6.75218 9.6194 6.73964 9.68702 6.74071H16.1462C16.2685 6.73886 16.3875 6.78096 16.4815 6.85936C16.5754 6.93777 16.6382 7.04727 16.6583 7.16799C16.709 7.47874 16.732 7.79425 16.7264 8.10896Z" fill="black"/>
</svg>
